<svg xmlns="http://www.w3.org/2000/svg" viewBox="0 0 1536 1024" role="img" aria-labelledby="t d"><title id="t">VR Avatar Viewer 開発日記 2026年7月16日</title><desc id="d">ろひとChatGPTがVR操作修正、VAB軽量化、画像ブリッジを完成させるコミック風イラスト</desc><defs><linearGradient id="bg" x1="0" y1="0" x2="1" y2="1"><stop stop-color="#17213d"/><stop offset="1" stop-color="#284d77"/></linearGradient><filter id="s"><feDropShadow dx="0" dy="10" stdDeviation="12" flood-opacity=".25"/></filter></defs><rect width="1536" height="1024" fill="#f6eddb"/><rect x="36" y="36" width="1464" height="952" rx="30" fill="url(#bg)"/><rect x="74" y="78" width="1388" height="118" rx="20" fill="#fff4d7"/><text x="110" y="142" font-family="sans-serif" font-size="46" font-weight="700" fill="#17213d">VR Avatar Viewer 開発日記</text><text x="110" y="181" font-family="sans-serif" font-size="24" fill="#3b4a68">2026-07-16　軽くして、直して、画像まで運ぶ日</text><g filter="url(#s)"><rect x="74" y="230" width="888" height="620" rx="26" fill="#18202d" stroke="#84c8ff" stroke-width="5"/><rect x="108" y="268" width="820" height="510" rx="16" fill="#dfe7ef"/><rect x="130" y="294" width="235" height="452" rx="12" fill="#242f40"/><text x="154" y="337" font-family="monospace" font-size="24" fill="#8bd5ff">Hierarchy</text><g font-family="monospace" font-size="22" fill="#eef6ff"><text x="154" y="382">▼ Avatar</text><text x="180" y="422">▼ Armature</text><text x="206" y="462">├ Spine</text><text x="206" y="502">├ Head</text><text x="206" y="542">├ LeftHand</text><text x="206" y="582">├ RightHand</text><text x="206" y="622">├ Skirt</text><text x="206" y="662">└ Hair</text></g><rect x="398" y="294" width="500" height="452" rx="12" fill="#edf3f8"/><circle cx="648" cy="442" r="92" fill="#ffd9bf"/><path d="M560 421q88-125 176 0v-70q-88-90-176 0z" fill="#4a302b"/><circle cx="617" cy="442" r="10" fill="#25364a"/><circle cx="679" cy="442" r="10" fill="#25364a"/><path d="M623 482q25 18 50 0" fill="none" stroke="#b34e55" stroke-width="8" stroke-linecap="round"/><path d="M554 520q94-54 188 0l42 184H512z" fill="#4ba3d9"/><text x="435" y="726" font-family="sans-serif" font-size="26" font-weight="700" fill="#22334b">VRでも全身が見える！</text></g><g filter="url(#s)"><rect x="996" y="230" width="466" height="620" rx="26" fill="#fff7e6"/><text x="1030" y="285" font-family="sans-serif" font-size="31" font-weight="700" fill="#17213d">今日の三大クエスト</text><g font-family="sans-serif" font-size="27" fill="#24324a"><circle cx="1044" cy="352" r="15" fill="#53b870"/><text x="1076" y="362">VR操作の不具合修正</text><circle cx="1044" cy="430" r="15" fill="#53b870"/><text x="1076" y="440">VABテクスチャ重複排除</text><circle cx="1044" cy="508" r="15" fill="#53b870"/><text x="1076" y="518">画像ブリッジ完成</text></g><path d="M1060 610q95-92 190 0" fill="#f1a34e"/><circle cx="1155" cy="622" r="84" fill="#f1a34e"/><path d="M1090 574l-18-76 68 48M1220 574l18-76-68 48" fill="#f1a34e" stroke="#17213d" stroke-width="6"/><circle cx="1125" cy="620" r="9"/><circle cx="1185" cy="620" r="9"/><path d="M1130 657q25 25 50 0" fill="none" stroke="#17213d" stroke-width="7"/><rect x="1040" y="724" width="378" height="84" rx="18" fill="#17213d"/><text x="1064" y="759" font-family="sans-serif" font-size="23" fill="#fff">ろひ「画像は今度こそ高解像度で」</text><text x="1064" y="790" font-family="sans-serif" font-size="23" fill="#ffe18a">ルミナ「反省が実装されました！」</text></g><rect x="110" y="886" width="1316" height="62" rx="16" fill="#fff4d7"/><text x="148" y="928" font-family="sans-serif" font-size="28" font-weight="700" fill="#17213d">本日のコミット群：軽量化・VR修正・画像連携　— バグも画像も、運べるものは全部運ぶ。</text></svg>